<?xml version="1.0" encoding="UTF-8" standalone="no"?>
<svg
   xmlns:dc="http://purl.org/dc/elements/1.1/"
   xmlns:cc="http://creativecommons.org/ns#"
   xmlns:rdf="http://www.w3.org/1999/02/22-rdf-syntax-ns#"
   xmlns:svg="http://www.w3.org/2000/svg"
   xmlns="http://www.w3.org/2000/svg"
   xmlns:sodipodi="http://sodipodi.sourceforge.net/DTD/sodipodi-0.dtd"
   xmlns:inkscape="http://www.inkscape.org/namespaces/inkscape"
   width="4.5cm"
   height="5.1999998cm"
   viewBox="0 0 170.07874 196.53543"
   version="1.1"
   id="svg6"
   sodipodi:docname="logo.svg"
   inkscape:export-filename="C:\Users\kaued\Dropbox (Bioversity CR)\Rcode\chirps\man\figures\logo.png"
   inkscape:export-xdpi="100"
   inkscape:export-ydpi="100"
   inkscape:version="0.92.3 (2405546, 2018-03-11)">
  <metadata
     id="metadata12">
    <rdf:RDF>
      <cc:Work
         rdf:about="">
        <dc:format>image/svg+xml</dc:format>
        <dc:type
           rdf:resource="http://purl.org/dc/dcmitype/StillImage" />
        <dc:title />
      </cc:Work>
    </rdf:RDF>
  </metadata>
  <defs
     id="defs10">
    <clipPath
       clipPathUnits="userSpaceOnUse"
       id="clipPath33">
      <rect
         style="opacity:0.02000002;fill:#f9f9f9;fill-opacity:1;stroke:none;stroke-width:7.6500001;stroke-miterlimit:4;stroke-dasharray:none;stroke-opacity:1"
         id="rect35"
         width="614.25568"
         height="546.71973"
         x="-1.36356"
         y="-44.76963"
         ry="0.72283477" />
    </clipPath>
  </defs>
  <sodipodi:namedview
     pagecolor="#ffffff"
     bordercolor="#666666"
     borderopacity="1"
     objecttolerance="10"
     gridtolerance="10"
     guidetolerance="10"
     inkscape:pageopacity="0"
     inkscape:pageshadow="2"
     inkscape:window-width="1366"
     inkscape:window-height="705"
     id="namedview8"
     showgrid="false"
     inkscape:zoom="1.1893663"
     inkscape:cx="-123.53483"
     inkscape:cy="47.997957"
     inkscape:window-x="-8"
     inkscape:window-y="-8"
     inkscape:window-maximized="1"
     inkscape:current-layer="svg6"
     units="cm"
     inkscape:snap-text-baseline="true" />
  <path
     d="M 6.4162442,142.36982 V 52.047455 L 84.493098,6.8784349 162.56995,52.047455 v 90.322365 l -78.076852,45.16771 z"
     id="path2"
     inkscape:connector-curvature="0"
     style="fill:#ffcc00;stroke-width:1.30410552;fill-opacity:1"
     inkscape:export-xdpi="100"
     inkscape:export-ydpi="100" />
  <path
     d="M 85.333882,9.8211794 161.65767,53.979539 V 142.27359 L 85.333882,186.43196 9.0101013,142.27359 V 53.979539 Z m 0,-7.6946117 L 2.3732513,50.126233 V 146.1269 L 85.333882,194.12657 168.29452,146.1269 V 50.126233 Z"
     id="path4"
     style="fill:#000000;stroke-width:1.33034372"
     inkscape:connector-curvature="0"
     inkscape:export-xdpi="100"
     inkscape:export-ydpi="100" />
  <text
     xml:space="preserve"
     style="font-style:normal;font-variant:normal;font-weight:bold;font-stretch:normal;font-size:33.33333206px;line-height:1.25;font-family:sans-serif;-inkscape-font-specification:'sans-serif, Bold';font-variant-ligatures:normal;font-variant-caps:normal;font-variant-numeric:normal;font-feature-settings:normal;text-align:start;letter-spacing:0px;word-spacing:0px;writing-mode:lr-tb;text-anchor:start;fill:#000000;fill-opacity:1;stroke:none"
     x="33.189926"
     y="141.59203"
     id="text4539"><tspan
       sodipodi:role="line"
       id="tspan4537"
       x="33.189926"
       y="141.59203">chirps</tspan></text>
  <g
     transform="matrix(-0.19103693,0,0,0.19103693,140.92911,45.701023)"
     id="g4"
     clip-path="url(#clipPath33)">
    <path
       inkscape:connector-curvature="0"
       d="m 605.821,350.504 c -14.572,-10.472 -36.69,-17.157 -61.467,-17.157 -38.362,0 -70.37,16.019 -77.817,37.32 h -3.195 c -7.265,-21.44 -39.371,-37.6 -77.898,-37.6 -24.817,0 -46.924,6.727 -61.489,17.229 v 180.318 c 0,44.877 -36.509,81.386 -81.386,81.386 -44.877,0 -81.386,-36.509 -81.386,-81.386 0,-9.918 8.036,-17.953 17.953,-17.953 9.917,0 17.953,8.035 17.953,17.953 0,25.077 20.401,45.479 45.479,45.479 25.078,0 45.479,-20.401 45.479,-45.479 V 350.59 c -14.569,-10.509 -36.688,-17.243 -61.516,-17.243 -38.362,0 -70.37,16.019 -77.816,37.32 h -3.196 c -7.265,-21.44 -39.371,-37.6 -77.899,-37.6 -24.761,0 -46.869,6.676 -61.44,17.136 11.71,-127.852 132.01,-229.48 281.868,-237.048 v -13.42 c 0,-9.917 8.036,-17.953 17.953,-17.953 9.917,0 17.953,8.036 17.953,17.953 v 13.422 c 149.963,7.584 270.318,109.361 281.867,237.347 z M 200.577,28.726 c 0,0 -35.256,24.968 -40.29,34.503 -5.034,9.535 -1.384,21.346 8.151,26.38 9.535,5.034 21.346,1.384 26.38,-8.151 5.033,-9.536 5.759,-52.732 5.759,-52.732 z M 279.668,0 c 0,0 -35.256,24.968 -40.29,34.503 -5.034,9.535 -1.384,21.346 8.151,26.379 9.536,5.034 21.346,1.384 26.38,-8.151 C 278.943,43.196 279.668,0 279.668,0 Z m 93.261,0 c 0,0 -35.256,24.968 -40.29,34.503 -5.033,9.535 -1.384,21.346 8.151,26.379 9.535,5.033 21.346,1.384 26.379,-8.151 C 372.203,43.196 372.929,0 372.929,0 Z m 74.264,26.711 c 0,0 -35.256,24.968 -40.29,34.503 -5.033,9.535 -1.384,21.346 8.151,26.379 9.535,5.034 21.346,1.384 26.38,-8.151 5.034,-9.535 5.759,-52.731 5.759,-52.731 z"
       id="path2-96" />
  </g>
</svg>
